<svg xmlns="http://www.w3.org/2000/svg" xmlns:xlink="http://www.w3.org/1999/xlink" width="500" zoomAndPan="magnify" viewBox="0 0 375 374.999991" height="500" preserveAspectRatio="xMidYMid meet" version="1.2"><defs/><g id="baa2ee2892"><path style="fill:none;stroke-width:19;stroke-linecap:butt;stroke-linejoin:miter;stroke:#292871;stroke-opacity:1;stroke-miterlimit:4;" d="M 9.501591 -0.00140762 L 9.501591 156.109202 C 9.501591 162.605665 14.766529 167.870603 21.262993 167.870603 C 27.759456 167.870603 33.024394 173.13554 33.024394 179.632004 L 33.024394 311.333633 C 33.024394 324.587201 43.769297 335.332105 57.022865 335.332105 L 107.828209 335.332105 " transform="matrix(0.599485,0,0,0.599485,41.288315,71.661)"/><path style="fill:none;stroke-width:19;stroke-linecap:butt;stroke-linejoin:miter;stroke:#292871;stroke-opacity:1;stroke-miterlimit:4;" d="M 166.825386 276.469426 L 166.825386 33.499797 C 166.825386 20.24228 156.080987 9.497881 142.82347 9.497881 L 33.499539 9.497881 C 20.242022 9.497881 9.497623 20.24228 9.497623 33.499797 L 9.497623 253.270402 C 9.497623 259.425911 11.945466 265.326845 16.292835 269.674214 C 20.646732 274.028111 26.547665 276.469426 32.696647 276.469426 L 55.895671 276.469426 " transform="matrix(0.598422,0,0,0.598422,0.0000045,106.949069)"/><g style="fill:#292871;fill-opacity:1;"><g transform="translate(127.8064, 282.578905)"><path style="stroke:none" d="M 50.25 0 C 48.5625 0 47.207031 -0.691406 46.1875 -2.078125 L 25.34375 -29.5 L 33.5625 -37.890625 L 55.109375 -9.375 C 55.953125 -8.238281 56.375 -7.007812 56.375 -5.6875 C 56.375 -4 55.742188 -2.628906 54.484375 -1.578125 C 53.222656 -0.523438 51.8125 0 50.25 0 Z M 51.328125 -63.59375 C 52.765625 -63.59375 53.945312 -63.003906 54.875 -61.828125 C 55.8125 -60.660156 56.28125 -59.472656 56.28125 -58.265625 C 56.28125 -57.003906 55.738281 -55.832031 54.65625 -54.75 L 16.875 -18.578125 L 16.421875 -31.484375 L 46.90625 -61.515625 C 48.289062 -62.898438 49.765625 -63.59375 51.328125 -63.59375 Z M 12.359375 0 C 10.671875 0 9.316406 -0.523438 8.296875 -1.578125 C 7.273438 -2.628906 6.765625 -3.9375 6.765625 -5.5 L 6.765625 -57.640625 C 6.765625 -59.203125 7.304688 -60.507812 8.390625 -61.5625 C 9.472656 -62.613281 10.851562 -63.140625 12.53125 -63.140625 C 14.21875 -63.140625 15.554688 -62.613281 16.546875 -61.5625 C 17.546875 -60.507812 18.046875 -59.203125 18.046875 -57.640625 L 18.046875 -5.5 C 18.046875 -3.9375 17.53125 -2.628906 16.5 -1.578125 C 15.476562 -0.523438 14.097656 0 12.359375 0 Z M 12.359375 0 "/></g></g><g style="fill:#292871;fill-opacity:1;"><g transform="translate(184.993103, 282.578905)"><path style="stroke:none" d="M 28.59375 0.90625 C 23.476562 0.90625 19.039062 -0.160156 15.28125 -2.296875 C 11.53125 -4.429688 8.644531 -7.332031 6.625 -11 C 4.613281 -14.664062 3.609375 -18.816406 3.609375 -23.453125 C 3.609375 -28.867188 4.703125 -33.484375 6.890625 -37.296875 C 9.085938 -41.117188 11.960938 -44.050781 15.515625 -46.09375 C 19.066406 -48.132812 22.828125 -49.15625 26.796875 -49.15625 C 29.859375 -49.15625 32.753906 -48.523438 35.484375 -47.265625 C 38.222656 -46.003906 40.644531 -44.273438 42.75 -42.078125 C 44.851562 -39.878906 46.519531 -37.335938 47.75 -34.453125 C 48.988281 -31.566406 49.609375 -28.5 49.609375 -25.25 C 49.546875 -23.8125 48.972656 -22.640625 47.890625 -21.734375 C 46.816406 -20.835938 45.554688 -20.390625 44.109375 -20.390625 L 9.65625 -20.390625 L 6.953125 -29.40625 L 40.046875 -29.40625 L 38.0625 -27.609375 L 38.0625 -30.03125 C 37.945312 -31.78125 37.332031 -33.34375 36.21875 -34.71875 C 35.101562 -36.101562 33.71875 -37.203125 32.0625 -38.015625 C 30.414062 -38.828125 28.660156 -39.234375 26.796875 -39.234375 C 24.984375 -39.234375 23.296875 -38.992188 21.734375 -38.515625 C 20.171875 -38.035156 18.816406 -37.222656 17.671875 -36.078125 C 16.535156 -34.941406 15.632812 -33.410156 14.96875 -31.484375 C 14.3125 -29.554688 13.984375 -27.117188 13.984375 -24.171875 C 13.984375 -20.921875 14.660156 -18.164062 16.015625 -15.90625 C 17.367188 -13.65625 19.109375 -11.941406 21.234375 -10.765625 C 23.367188 -9.597656 25.640625 -9.015625 28.046875 -9.015625 C 30.273438 -9.015625 32.050781 -9.195312 33.375 -9.5625 C 34.695312 -9.925781 35.765625 -10.363281 36.578125 -10.875 C 37.390625 -11.382812 38.125 -11.816406 38.78125 -12.171875 C 39.863281 -12.710938 40.890625 -12.984375 41.859375 -12.984375 C 43.179688 -12.984375 44.273438 -12.53125 45.140625 -11.625 C 46.015625 -10.726562 46.453125 -9.679688 46.453125 -8.484375 C 46.453125 -6.859375 45.609375 -5.382812 43.921875 -4.0625 C 42.359375 -2.738281 40.164062 -1.578125 37.34375 -0.578125 C 34.519531 0.410156 31.601562 0.90625 28.59375 0.90625 Z M 28.59375 0.90625 "/></g></g><g style="fill:#292871;fill-opacity:1;"><g transform="translate(238.211047, 282.578905)"><path style="stroke:none" d="M 11.28125 0 C 9.71875 0 8.421875 -0.523438 7.390625 -1.578125 C 6.367188 -2.628906 5.859375 -3.9375 5.859375 -5.5 L 5.859375 -42.75 C 5.859375 -44.3125 6.367188 -45.617188 7.390625 -46.671875 C 8.421875 -47.734375 9.71875 -48.265625 11.28125 -48.265625 C 12.84375 -48.265625 14.132812 -47.734375 15.15625 -46.671875 C 16.175781 -45.617188 16.6875 -44.3125 16.6875 -42.75 L 16.6875 -34.28125 L 16.0625 -40.328125 C 16.71875 -41.765625 17.570312 -43.039062 18.625 -44.15625 C 19.675781 -45.269531 20.863281 -46.203125 22.1875 -46.953125 C 23.507812 -47.703125 24.921875 -48.253906 26.421875 -48.609375 C 27.929688 -48.972656 29.4375 -49.15625 30.9375 -49.15625 C 32.738281 -49.15625 34.253906 -48.644531 35.484375 -47.625 C 36.722656 -46.601562 37.34375 -45.398438 37.34375 -44.015625 C 37.34375 -42.035156 36.832031 -40.609375 35.8125 -39.734375 C 34.789062 -38.859375 33.675781 -38.421875 32.46875 -38.421875 C 31.332031 -38.421875 30.296875 -38.628906 29.359375 -39.046875 C 28.429688 -39.472656 27.363281 -39.6875 26.15625 -39.6875 C 25.070312 -39.6875 23.972656 -39.429688 22.859375 -38.921875 C 21.753906 -38.410156 20.734375 -37.613281 19.796875 -36.53125 C 18.867188 -35.445312 18.117188 -34.109375 17.546875 -32.515625 C 16.972656 -30.921875 16.6875 -29.039062 16.6875 -26.875 L 16.6875 -5.5 C 16.6875 -3.9375 16.175781 -2.628906 15.15625 -1.578125 C 14.132812 -0.523438 12.84375 0 11.28125 0 Z M 11.28125 0 "/></g></g><g style="fill:#292871;fill-opacity:1;"><g transform="translate(266.533632, 282.578905)"><path style="stroke:none" d="M 10.640625 -0.09375 C 8.898438 -0.09375 7.5625 -0.554688 6.625 -1.484375 C 5.695312 -2.421875 5.234375 -3.757812 5.234375 -5.5 L 5.234375 -7.03125 C 5.234375 -8.78125 5.695312 -10.117188 6.625 -11.046875 C 7.5625 -11.984375 8.898438 -12.453125 10.640625 -12.453125 L 11.8125 -12.453125 C 13.5625 -12.453125 14.898438 -11.984375 15.828125 -11.046875 C 16.765625 -10.117188 17.234375 -8.78125 17.234375 -7.03125 L 17.234375 -5.5 C 17.234375 -3.757812 16.765625 -2.421875 15.828125 -1.484375 C 14.898438 -0.554688 13.5625 -0.09375 11.8125 -0.09375 Z M 10.640625 -0.09375 "/></g></g><g style="fill:#292871;fill-opacity:1;"><g transform="translate(288.993411, 282.578905)"><path style="stroke:none" d="M 18.046875 -5.5 C 18.046875 -3.9375 17.472656 -2.628906 16.328125 -1.578125 C 15.179688 -0.523438 13.859375 0 12.359375 0 C 10.671875 0 9.316406 -0.523438 8.296875 -1.578125 C 7.273438 -2.628906 6.765625 -3.9375 6.765625 -5.5 L 6.765625 -57.640625 C 6.765625 -59.203125 7.304688 -60.507812 8.390625 -61.5625 C 9.472656 -62.613281 10.851562 -63.140625 12.53125 -63.140625 C 13.976562 -63.140625 15.257812 -62.613281 16.375 -61.5625 C 17.488281 -60.507812 18.046875 -59.203125 18.046875 -57.640625 Z M 18.046875 -5.5 "/></g></g><g style="fill:#292871;fill-opacity:1;"><g transform="translate(313.798393, 282.578905)"><path style="stroke:none" d="M 29.953125 -48.984375 L 10.46875 -3.15625 C 10.039062 -2.007812 9.390625 -1.117188 8.515625 -0.484375 C 7.648438 0.140625 6.707031 0.453125 5.6875 0.453125 C 4.0625 0.453125 2.859375 0.00390625 2.078125 -0.890625 C 1.296875 -1.796875 0.90625 -2.910156 0.90625 -4.234375 C 0.90625 -4.773438 0.992188 -5.347656 1.171875 -5.953125 L 23.640625 -59.890625 C 24.117188 -61.097656 24.851562 -62.03125 25.84375 -62.6875 C 26.832031 -63.351562 27.898438 -63.625 29.046875 -63.5 C 30.128906 -63.5 31.132812 -63.179688 32.0625 -62.546875 C 33 -61.921875 33.675781 -61.035156 34.09375 -59.890625 L 56.28125 -7.03125 C 56.582031 -6.25 56.734375 -5.53125 56.734375 -4.875 C 56.734375 -3.25 56.207031 -1.953125 55.15625 -0.984375 C 54.101562 -0.0234375 52.945312 0.453125 51.6875 0.453125 C 50.601562 0.453125 49.625 0.125 48.75 -0.53125 C 47.882812 -1.195312 47.207031 -2.101562 46.71875 -3.25 L 27.328125 -48.4375 Z M 13.265625 -14.15625 L 18.21875 -24.53125 L 42.578125 -24.53125 L 44.296875 -14.15625 Z M 13.265625 -14.15625 "/></g></g></g></svg>